Coordinates
version=1
nRows=14
nColumns=40
inDegrees=yes

Units are S.I. units (second, meters, Newtons, ...)
Angles are in degrees.

endheader
time	pelvis_tilt	pelvis_list	pelvis_rotation	pelvis_tx	pelvis_ty	pelvis_tz	hip_flexion_r	hip_adduction_r	hip_rotation_r	knee_angle_r	knee_angle_r_beta	ankle_angle_r	subtalar_angle_r	mtp_angle_r	hip_flexion_l	hip_adduction_l	hip_rotation_l	knee_angle_l	knee_angle_l_beta	ankle_angle_l	subtalar_angle_l	mtp_angle_l	lumbar_extension	lumbar_bending	lumbar_rotation	arm_flex_r	arm_add_r	arm_rot_r	elbow_flex_r	pro_sup_r	wrist_flex_r	wrist_dev_r	arm_flex_l	arm_add_l	arm_rot_l	elbow_flex_l	pro_sup_l	wrist_flex_l	wrist_dev_l
     38.92500000	     -8.15606980	     -5.70363555	      4.18581331	      1.06986913	      0.92590354	      0.49337285	     15.55889025	      3.89488247	    -13.66316879	     18.47496806	     18.47496806	     12.16752109	     -1.96404609	     -0.00947112	     43.57538696	    -11.28832287	      6.31495994	     68.08410039	     68.08410039	      9.63305418	    -19.26790013	     18.04165202	    -12.05593601	      4.38259672	      3.48571502	     17.22551264	    -13.91921595	     -3.42770584	     57.34649655	     45.52704919	      0.00000000	      0.00000000	      4.60982459	     -8.38754739	     -3.20403018	     31.13508122	     46.87588712	      0.00000000	      0.00000000
     38.93657143	     -8.23143679	     -5.70780994	      4.26424493	      1.06801021	      0.92588610	      0.49325928	     14.82078540	      3.99065140	    -13.77472895	     17.77618188	     17.77618188	     12.30642710	     -1.57717675	     -0.39673349	     44.73924172	    -11.13147956	      6.22634077	     66.59228984	     66.59228984	      9.86917183	    -19.27312643	     18.59975459	    -12.05394731	      4.39841696	      3.87957340	     18.73219944	    -14.49050624	     -3.69324059	     60.62804902	     45.42884547	      0.00000000	      0.00000000	      3.83086948	     -8.20368152	     -2.36577872	     29.26306197	     46.69754937	      0.00000000	      0.00000000
     38.94814286	     -8.30584054	     -5.76476998	      4.32794566	      1.06616461	      0.92585605	      0.49303592	     14.01513638	      4.17157625	    -13.82581698	     16.93757768	     16.93757768	     12.48520129	     -1.21481246	     -0.39741853	     45.74577395	    -10.97326430	      6.23142803	     64.83822834	     64.83822834	      9.87071000	    -19.24780965	     18.68101059	    -12.02878894	      4.47012700	      3.81105549	     21.04251297	    -14.52935993	     -4.00177325	     62.39853257	     45.39091670	      0.00000000	      0.00000000	      2.44006464	     -8.11021045	     -2.09645822	     28.45653868	     46.62357551	      0.00000000	      0.00000000
     38.95971429	     -8.40321883	     -5.82597151	      4.36049985	      1.06433211	      0.92573707	      0.49267852	     13.19074146	      4.34317447	    -13.91709926	     16.02821115	     16.02821115	     12.64410086	     -0.65937188	     -0.45747903	     46.61167160	    -10.74433584	      6.34270162	     62.86316780	     62.86316780	      9.79822364	    -19.17263584	     18.64029152	    -11.99559704	      4.55400091	      3.81627770	     23.24303449	    -14.61496337	     -4.19362969	     64.40002110	     45.34051689	      0.00000000	      0.00000000	      1.06081667	     -7.99452437	     -1.79329804	     27.82680605	     46.54319955	      0.00000000	      0.00000000
     38.97128571	     -8.50453057	     -5.90907220	      4.36519599	      1.06260859	      0.92556202	      0.49217148	     12.30848659	      4.53404503	    -14.10109389	     15.01221504	     15.01221504	     12.76658535	      0.07569520	     -0.58154556	     47.29588687	    -10.48204519	      6.55443155	     60.66870133	     60.66870133	      9.66249082	    -19.05114326	     18.36282588	    -11.95517246	      4.68868835	      3.87734322	     25.35873057	    -14.74500301	     -4.29363938	     66.69689651	     45.27710824	      0.00000000	      0.00000000	     -0.33810065	     -7.86687804	     -1.41238825	     27.43381577	     46.44659570	      0.00000000	      0.00000000
     38.98285714	     -8.74692472	     -6.00907396	      4.27289250	      1.06078549	      0.92495489	      0.49167111	     11.92469773	      4.67582763	    -14.06099690	     14.66174364	     14.66174364	     13.03517180	      0.32736286	     -0.69966598	     47.96811187	    -10.22569910	      6.83833274	     58.30817651	     58.30817651	      9.73961675	    -18.72123106	     18.41027543	    -11.65284230	      4.80941243	      4.59524629	     27.27685963	    -15.27078734	     -4.52499672	     67.66373772	     45.26220766	      0.00000000	      0.00000000	     -1.40941384	     -7.64723090	     -1.32905030	     27.14569331	     46.41155729	      0.00000000	      0.00000000
     38.99442857	     -8.73580771	     -6.12942818	      4.28792942	      1.05946790	      0.92484671	      0.49080021	     10.52024969	      4.88412480	    -14.89265425	     12.94003305	     12.94003305	     12.83732792	      2.40634271	     -1.56070914	     48.06221903	     -9.99052359	      7.13635732	     55.51842164	     55.51842164	      8.64535118	    -18.49656722	     15.48853820	    -11.90004455	      5.02720535	      4.65222679	     28.60837385	    -15.81683694	     -4.02336239	     73.10186555	     45.07996995	      0.00000000	      0.00000000	     -3.41450693	     -7.79273999	      0.38955905	     28.63539454	     46.04911631	      0.00000000	      0.00000000
     39.00600000	     -8.82609771	     -6.30565419	      4.19356013	      1.05811492	      0.92445662	      0.49012239	      9.49321473	      5.22304977	    -14.95369026	     11.69335882	     11.69335882	     12.85246995	      3.16701871	     -1.54478190	     48.15065003	     -9.79982603	      7.58096559	     52.71195242	     52.71195242	      8.61389089	    -17.90034245	     15.14415281	    -11.80553669	      5.25215199	      4.77731619	     30.86113574	    -15.70351515	     -4.23621793	     74.86924353	     45.04223008	      0.00000000	      0.00000000	     -4.78248293	     -7.64179905	      0.95925462	     28.39581664	     45.92959472	      0.00000000	      0.00000000
     39.01757143	     -8.87769974	     -6.52375074	      4.09506045	      1.05704857	      0.92395104	      0.48931391	      8.36638366	      5.57720805	    -15.25928654	     10.38695241	     10.38695241	     12.86860485	      4.41295365	     -1.65278318	     48.00302603	     -9.76067507	      7.90042013	     49.73724567	     49.73724567	      8.59167838	    -16.89033069	     14.46280239	    -11.76037600	      5.57526917	      4.90484750	     32.86317555	    -15.62129105	     -4.22813449	     77.06598309	     44.98295482	      0.00000000	      0.00000000	     -6.29601595	     -7.53826910	      1.59204704	     28.58534208	     45.79461457	      0.00000000	      0.00000000
     39.02914286	     -8.95241907	     -6.77953051	      3.96023280	      1.05618896	      0.92309180	      0.48851040	      7.34014445	      5.93155045	    -15.70748443	      9.24639645	      9.24639645	     12.73991545	      5.85466266	     -2.43961744	     47.55369013	     -9.86619827	      8.08657603	     46.34354516	     46.34354516	      7.21299958	    -16.15657760	     10.23268297	    -11.68396002	      5.89325104	      5.60178120	     34.28965486	    -16.22328851	     -4.24961910	     80.17719024	     44.96793695	      0.00000000	      0.00000000	     -8.45507020	     -8.72001352	      8.59895621	     31.51254491	     44.76098593	      0.00000000	      0.00000000
     39.04071429	     -8.99344243	     -7.07400494	      3.80112701	      1.05562085	      0.92219220	      0.48764345	      6.24736632	      6.35634218	    -15.95390037	      8.09482599	      8.09482599	     12.82618009	      7.10028223	     -2.40512105	     47.06351914	    -10.03683881	      8.22124403	     43.25735568	     43.25735568	      7.50730670	    -14.77534812	     10.54060264	    -11.54158612	      6.28234453	      5.76663717	     36.18444953	    -16.10545254	     -4.09842553	     82.25126929	     44.91105898	      0.00000000	      0.00000000	     -9.89638632	     -8.53816166	      8.83221609	     31.63473053	     44.72194975	      0.00000000	      0.00000000
     39.05228571	     -9.01627517	     -7.24316845	      3.56191725	      1.05532462	      0.92118816	      0.48675352	      5.20419416	      6.62293703	    -16.02651125	      7.14242092	      7.14242092	     12.99305379	      8.17092287	     -2.41649062	     46.28722026	    -10.19559405	      8.09030273	     40.08718809	     40.08718809	      7.69524639	    -13.50619919	     10.94021974	    -11.43852424	      6.47585756	      6.00171083	     38.04923636	    -15.96105501	     -3.94935599	     84.08888653	     44.85915273	      0.00000000	      0.00000000	    -11.28586893	     -8.37853759	      9.01158733	     31.76375903	     44.68417327	      0.00000000	      0.00000000
     39.06385714	     -8.99993123	     -7.53027228	      3.33075704	      1.05538695	      0.91995438	      0.48579871	      4.07562345	      7.01780749	    -16.22466700	      6.13768400	      6.13768400	     13.14593312	      9.42452179	     -2.40823120	     45.37222683	    -10.48909299	      7.88294681	     37.03803206	     37.03803206	      7.84603506	    -12.36737347	     11.41241956	    -11.32528149	      6.79420810	      6.10893750	     39.78835429	    -15.74746768	     -3.61660323	     86.23600996	     44.79247491	      0.00000000	      0.00000000	    -12.80668923	     -8.20501294	      9.22461659	     32.21556402	     44.64089513	      0.00000000	      0.00000000
     39.07542857	     -9.03661262	     -7.79087789	      3.06280393	      1.05560895	      0.91844253	      0.48475668	      3.16203627	      7.32832791	    -16.26629192	      5.47542621	      5.47542621	     13.41726965	     10.33718674	     -2.44935059	     44.40331134	    -10.79297951	      7.46363594	     34.15747838	     34.15747838	      7.77330206	    -11.49897553	     12.01801038	    -11.10495681	      7.09574958	      6.33109052	     41.45789116	    -15.61188839	     -3.35122967	     88.00456080	     44.73918091	      0.00000000	      0.00000000	    -14.19190676	     -8.02631493	      9.41291039	     32.60777919	     44.60184501	      0.00000000	      0.00000000
